<?xml version="1.0" encoding="UTF-8" standalone="no"?>
<!-- Created with Inkscape (http://www.inkscape.org/) -->

<svg
   xmlns:dc="http://purl.org/dc/elements/1.1/"
   xmlns:cc="http://creativecommons.org/ns#"
   xmlns:rdf="http://www.w3.org/1999/02/22-rdf-syntax-ns#"
   xmlns:svg="http://www.w3.org/2000/svg"
   xmlns="http://www.w3.org/2000/svg"
   xmlns:xlink="http://www.w3.org/1999/xlink"
   xmlns:sodipodi="http://sodipodi.sourceforge.net/DTD/sodipodi-0.dtd"
   xmlns:inkscape="http://www.inkscape.org/namespaces/inkscape"
   width="143.99982"
   height="144.00038"
   id="svg6840"
   version="1.1"
   inkscape:version="0.48.2 r9819"
   sodipodi:docname="wheel.svg">
  <defs
     id="defs6842"><linearGradient
   inkscape:collect="always"
   xlink:href="#linearGradient6698"
   id="linearGradient6731"
   gradientUnits="userSpaceOnUse"
   x1="526.211"
   y1="814.70728"
   x2="543.41046"
   y2="814.70728" />
<linearGradient
   id="linearGradient6698">
  <stop
     style="stop-color:#5e5e5e;stop-opacity:1;"
     offset="0"
     id="stop6700" />
  <stop
     style="stop-color:#898989;stop-opacity:1;"
     offset="1"
     id="stop6702" />
</linearGradient>
<radialGradient
   inkscape:collect="always"
   xlink:href="#linearGradient5586-5"
   id="radialGradient6733"
   gradientUnits="userSpaceOnUse"
   gradientTransform="matrix(1,0,0,1.0405406,0,-33.028725)"
   cx="534.81073"
   cy="814.70728"
   fx="534.81073"
   fy="814.70728"
   r="8.5997372" />
<linearGradient
   id="linearGradient5586-5">
  <stop
     style="stop-color:#252525;stop-opacity:1;"
     offset="0"
     id="stop5588-1" />
  <stop
     id="stop6687"
     offset="0.20845845"
     style="stop-color:#754110;stop-opacity:1;" />
  <stop
     id="stop6683"
     offset="0.53041095"
     style="stop-color:#563e20;stop-opacity:1;" />
  <stop
     style="stop-color:#322f2d;stop-opacity:1;"
     offset="0.68623787"
     id="stop6685" />
  <stop
     style="stop-color:#2b2a2a;stop-opacity:1;"
     offset="1"
     id="stop5590-1" />
</linearGradient>

	
	
	
	
	
	
	
	
	
	
	
	
	

		
		
		
		
		
		
		
		
		
		
		
		
		
		
		
		
		
		
		
		
		
		
		
		
		
		
		
		
		
		
		
		
		
		
		
		
		
		
		
		
		
		
		
		
		
		
		
		
		
		
		
		
		
		
		
		
		
		
		
		
		
		
		
		
		
		
		
		
		
		
		
		
		
		
		
		
		
		
		
		
		
		
		
		
		
		
		
		
		
		
		
		
		
		
		
		
		
		
		
		
		
		
		
		
		
		
		
		
		
		
		
		
		
		
		
		
		
	
			
			
			
		
				
				
				
			
					
					
					
					
				</defs>
  <sodipodi:namedview
     id="base"
     pagecolor="#ffffff"
     bordercolor="#666666"
     borderopacity="1.0"
     inkscape:pageopacity="0.0"
     inkscape:pageshadow="2"
     inkscape:zoom="4"
     inkscape:cx="75.538221"
     inkscape:cy="64.107128"
     inkscape:document-units="px"
     inkscape:current-layer="layer1"
     showgrid="false"
     fit-margin-top="0"
     fit-margin-left="0"
     fit-margin-right="0"
     fit-margin-bottom="0"
     inkscape:window-width="1343"
     inkscape:window-height="856"
     inkscape:window-x="0"
     inkscape:window-y="0"
     inkscape:window-maximized="0" />
  <metadata
     id="metadata6845">
    <rdf:RDF>
      <cc:Work
         rdf:about="">
        <dc:format>image/svg+xml</dc:format>
        <dc:type
           rdf:resource="http://purl.org/dc/dcmitype/StillImage" />
        <dc:title />
      </cc:Work>
    </rdf:RDF>
  </metadata>
  <g
     inkscape:label="Layer 1"
     inkscape:groupmode="layer"
     id="layer1"
     transform="translate(-50.85724,-577.50485)">
    <g
       style="display:inline"
       id="g4074"
       transform="matrix(1.4670487,0,0,1.4670487,-661.40339,-550.84961)">
      <g
         transform="matrix(0.99516687,0,0,0.98688511,2.3298478,111.63326)"
         id="g6095"
         style="display:inline" />
      <g
         id="g6718"
         transform="translate(-1.363345,-95.429948)">
        <path
           sodipodi:type="arc"
           style="fill:#1a1a1a;fill-opacity:1;stroke:none;display:inline"
           id="path3100"
           sodipodi:cx="542.96875"
           sodipodi:cy="814.66687"
           sodipodi:rx="48.4375"
           sodipodi:ry="48.632812"
           d="m 591.40625,814.66687 c 0,26.85916 -21.68621,48.63281 -48.4375,48.63281 -26.75129,0 -48.4375,-21.77365 -48.4375,-48.63281 0,-26.85916 21.68621,-48.63281 48.4375,-48.63281 26.75129,0 48.4375,21.77365 48.4375,48.63281 z"
           transform="matrix(1.0132245,0,0,1.0091593,-14.202049,91.511801)"
           inkscape:export-filename="/home/farrer/trigger/focus_complete.png"
           inkscape:export-xdpi="132.03"
           inkscape:export-ydpi="132.03" />
        <path
           transform="matrix(0.79653482,0,0,0.75304483,103.45368,300.15977)"
           d="m 591.40625,814.66687 c 0,27.45393 -21.68621,49.70974 -48.4375,49.70974 -26.75129,0 -48.4375,-22.25581 -48.4375,-49.70974 0,-27.45393 21.68621,-49.70974 48.4375,-49.70974 26.75129,0 48.4375,22.25581 48.4375,49.70974 z"
           sodipodi:ry="49.709736"
           sodipodi:rx="48.4375"
           sodipodi:cy="814.66687"
           sodipodi:cx="542.96875"
           id="path3870"
           style="fill:#333333;fill-opacity:1;stroke:none;display:inline"
           sodipodi:type="arc"
           inkscape:export-filename="/home/farrer/trigger/focus_complete.png"
           inkscape:export-xdpi="132.03"
           inkscape:export-ydpi="132.03" />
        <path
           transform="matrix(0.74565754,0,0,0.7049454,131.07845,339.34478)"
           d="m 591.40625,814.66687 c 0,27.45393 -21.68621,49.70974 -48.4375,49.70974 -26.75129,0 -48.4375,-22.25581 -48.4375,-49.70974 0,-27.45393 21.68621,-49.70974 48.4375,-49.70974 26.75129,0 48.4375,22.25581 48.4375,49.70974 z"
           sodipodi:ry="49.709736"
           sodipodi:rx="48.4375"
           sodipodi:cy="814.66687"
           sodipodi:cx="542.96875"
           id="path6716"
           style="fill:none;stroke:#7d7d7d;stroke-width:3.71079063;stroke-miterlimit:4;stroke-opacity:1;stroke-dasharray:none;display:inline"
           sodipodi:type="arc"
           inkscape:export-filename="/home/farrer/trigger/focus_complete.png"
           inkscape:export-xdpi="132.03"
           inkscape:export-ydpi="132.03" />
        <path
           sodipodi:nodetypes="sczcczcczcczcczcs"
           inkscape:connector-curvature="0"
           id="path6689"
           transform="matrix(0.68164063,0,0,0.68164063,26.08,166.56219)"
           d="m 748,1041.0938 c -2.813,0 -5.57826,0.2092 -8.28125,0.5937 0,0 2.36211,26.4801 -7,33.2813 -9.36211,6.8012 -35.21875,-3.7813 -35.21875,-3.7813 -2.44537,4.6758 -4.20348,9.735 -5.1875,15.0625 0,0 27.33703,6.5995 30.96875,17.7812 3.63172,11.1817 -14.25,31.7813 -14.25,31.7813 3.98974,3.6775 8.53909,6.7874 13.5,9.2187 0,0 14.02277,-23.0312 25.46875,-23.0312 11.44598,0 25.46875,23.0312 25.46875,23.0312 4.96091,-2.4313 9.51026,-5.5412 13.5,-9.2187 0,0 -17.88172,-20.5996 -14.25,-31.7813 3.63172,-11.1817 30.96875,-17.7812 30.96875,-17.7812 -0.98402,-5.3275 -2.74213,-10.3867 -5.1875,-15.0625 0,0 -25.85664,10.5825 -35.21875,3.7813 -9.36211,-6.8012 -7,-33.2813 -7,-33.2813 -2.70299,-0.3845 -5.46825,-0.5937 -8.28125,-0.5937 z"
           style="fill:#939393;fill-opacity:1;fill-rule:nonzero;stroke:none" />
        <path
           inkscape:export-ydpi="132.03"
           inkscape:export-xdpi="132.03"
           inkscape:export-filename="/home/farrer/trigger/focus_complete.png"
           sodipodi:type="arc"
           style="fill:none;stroke:#939393;stroke-width:3.71079063;stroke-miterlimit:4;stroke-opacity:1;stroke-dasharray:none;display:inline"
           id="path5720"
           sodipodi:cx="542.96875"
           sodipodi:cy="814.66687"
           sodipodi:rx="48.4375"
           sodipodi:ry="49.709736"
           d="m 591.40625,814.66687 c 0,27.45393 -21.68621,49.70974 -48.4375,49.70974 -26.75129,0 -48.4375,-22.25581 -48.4375,-49.70974 0,-27.45393 21.68621,-49.70974 48.4375,-49.70974 26.75129,0 48.4375,22.25581 48.4375,49.70974 z"
           transform="matrix(0.79653482,0,0,0.75304483,103.45368,300.15977)" />
        <path
           d="m 543.41047,814.70728 c 0,4.94205 -3.85024,8.94837 -8.59974,8.94837 -4.7495,0 -8.59974,-4.00632 -8.59974,-8.94837 0,-4.94206 3.85024,-8.94838 8.59974,-8.94838 4.7495,0 8.59974,4.00632 8.59974,8.94838 z"
           sodipodi:ry="8.9483757"
           sodipodi:rx="8.5997372"
           sodipodi:cy="814.70728"
           sodipodi:cx="534.81073"
           id="path6694"
           style="fill:url(#linearGradient6731);fill-opacity:1;stroke:none;display:inline"
           sodipodi:type="arc"
           transform="matrix(1.4015104,0,0,1.389847,-213.59558,-218.67802)" />
        <path
           transform="matrix(0.99516687,0,0,0.98688511,3.7212709,109.61797)"
           sodipodi:type="arc"
           style="fill:url(#radialGradient6733);fill-opacity:1;stroke:none;display:inline"
           id="path6083"
           sodipodi:cx="534.81073"
           sodipodi:cy="814.70728"
           sodipodi:rx="8.5997372"
           sodipodi:ry="8.9483757"
           d="m 543.41047,814.70728 c 0,4.94205 -3.85024,8.94837 -8.59974,8.94837 -4.7495,0 -8.59974,-4.00632 -8.59974,-8.94837 0,-4.94206 3.85024,-8.94838 8.59974,-8.94838 4.7495,0 8.59974,4.00632 8.59974,8.94838 z" />
        <path
           transform="matrix(0.68164063,0,0,0.68164063,26.761641,165.88055)"
           d="m 764,1084 c 0,2.2091 -1.79086,4 -4,4 -2.20914,0 -4,-1.7909 -4,-4 0,-2.2091 1.79086,-4 4,-4 2.20914,0 4,1.7909 4,4 z"
           sodipodi:ry="4"
           sodipodi:rx="4"
           sodipodi:cy="1084"
           sodipodi:cx="760"
           id="path6706"
           style="fill:#5e5b51;fill-opacity:1;fill-rule:nonzero;stroke:none"
           sodipodi:type="arc" />
        <path
           sodipodi:type="arc"
           style="fill:#5e5b51;fill-opacity:1;fill-rule:nonzero;stroke:none"
           id="path6710"
           sodipodi:cx="760"
           sodipodi:cy="1084"
           sodipodi:rx="4"
           sodipodi:ry="4"
           d="m 764,1084 c 0,2.2091 -1.79086,4 -4,4 -2.20914,0 -4,-1.7909 -4,-4 0,-2.2091 1.79086,-4 4,-4 2.20914,0 4,1.7909 4,4 z"
           transform="matrix(0.68164063,0,0,0.68164063,8.3573435,165.88055)" />
        <path
           sodipodi:type="arc"
           style="fill:#5e5b51;fill-opacity:1;fill-rule:nonzero;stroke:none"
           id="path6712"
           sodipodi:cx="760"
           sodipodi:cy="1084"
           sodipodi:rx="4"
           sodipodi:ry="4"
           d="m 764,1084 c 0,2.2091 -1.79086,4 -4,4 -2.20914,0 -4,-1.7909 -4,-4 0,-2.2091 1.79086,-4 4,-4 2.20914,0 4,1.7909 4,4 z"
           transform="matrix(0.68164063,0,0,0.68164063,26.761642,183.6032)" />
        <path
           transform="matrix(0.68164063,0,0,0.68164063,8.3573424,183.6032)"
           d="m 764,1084 c 0,2.2091 -1.79086,4 -4,4 -2.20914,0 -4,-1.7909 -4,-4 0,-2.2091 1.79086,-4 4,-4 2.20914,0 4,1.7909 4,4 z"
           sodipodi:ry="4"
           sodipodi:rx="4"
           sodipodi:cy="1084"
           sodipodi:cx="760"
           id="path6714"
           style="fill:#5e5b51;fill-opacity:1;fill-rule:nonzero;stroke:none"
           sodipodi:type="arc" />
      </g>
    </g>
    <g
       id="g3471"
       transform="matrix(3.5877029,0,0,3.5877029,-235.1689,408.39383)">
      <g
         transform="translate(-246.66102,-38.440678)"
         id="g857">
			<title
   id="title859">text:M.Banzi</title>

		</g>
      <g
         transform="translate(-246.66102,-38.440678)"
         id="g861">
			<title
   id="title863">text:D.Cuartielles</title>

		</g>
      <g
         transform="translate(-246.66102,-38.440678)"
         id="g865">
			<title
   id="title867">text:D.Mellis</title>

		</g>
      <g
         transform="translate(-246.66102,-38.440678)"
         id="g895">
			<title
   id="title897">text:G.Martino</title>

		</g>
      <g
         transform="translate(-246.66102,-38.440678)"
         id="g899">
			<title
   id="title901">text:T.Igoe</title>

		</g>
      <g
         transform="translate(-49.972884,28.18983)"
         id="_x30_.1.0.96.0.0">
						<path
   id="_x30_.1.0.96.0.0.0"
   d="m 149.707,36.165 c 0.805,-0.883 1.421,-1.69 2.161,-2.351 2.814,-2.526 5.986,-3.459 9.615,-1.928 3.434,1.444 5.288,5.022 4.543,8.669 -0.689,3.368 -3.928,5.934 -7.461,6.057 -3.278,0.11 -5.74,-1.354 -7.791,-3.735 -0.315,-0.363 -0.611,-0.744 -1.012,-1.229 -0.285,0.338 -0.506,0.588 -0.718,0.856 -2.196,2.764 -4.922,4.332 -8.586,4.095 -3.591,-0.228 -6.876,-3.526 -7.1,-7.115 -0.285,-4.549 3.183,-8.28 7.999,-8.321 3.189,-0.027 5.686,1.621 7.63,4.102 0.221,0.268 0.435,0.539 0.72,0.9 z"
   inkscape:connector-curvature="0"
   style="fill:#ffffff" />

						<path
   id="_x30_.1.0.96.0.0.1"
   d="m 141.83,33.686 c -3.317,-0.005 -5.742,2.122 -6.01,4.871 -0.237,2.438 1.696,4.872 4.36,5.453 2.626,0.567 4.722,-0.523 6.303,-2.427 2.425,-2.915 2.34,-2.413 0.028,-5.307 -1.28,-1.607 -3.034,-2.509 -4.681,-2.59 z"
   inkscape:connector-curvature="0"
   style="fill:#0f7391" />

						<path
   id="_x30_.1.0.96.0.0.2"
   d="m 158.267,33.664 c -0.406,0.027 -0.703,0.017 -0.987,0.076 -2.812,0.566 -4.578,2.436 -5.904,4.822 -0.102,0.188 -0.106,0.535 -0.001,0.717 1.193,2.071 2.691,3.846 5.073,4.594 2.31,0.726 4.329,0.127 5.919,-1.646 1.43,-1.585 1.753,-3.466 0.809,-5.427 -0.999,-2.071 -2.783,-2.987 -4.909,-3.136 z"
   inkscape:connector-curvature="0"
   style="fill:#0f7391" />

					</g>
      <g
         transform="translate(-49.972884,28.18983)"
         id="_x30_.1.0.96.0.1">
						<path
   id="_x30_.1.0.96.0.1.0"
   d="m 144.202,39.499 c 0,0.072 -0.061,0.132 -0.135,0.132 h -4.905 c -0.074,0 -0.134,-0.061 -0.134,-0.132 v -1.484 c 0,-0.076 0.061,-0.134 0.134,-0.134 h 4.905 c 0.072,0 0.135,0.062 0.135,0.134 v 1.484 z"
   inkscape:connector-curvature="0"
   style="fill:#ffffff" />

					</g>
      <g
         transform="translate(-49.972884,28.18983)"
         id="_x30_.1.0.96.0.2">
						<path
   id="_x30_.1.0.96.0.2.0"
   d="m 160.398,38.018 c 0,-0.075 -0.06,-0.131 -0.133,-0.131 h -1.445 c -0.072,0 -0.134,-0.06 -0.134,-0.134 V 36.31 c 0,-0.077 -0.06,-0.136 -0.132,-0.136 h -1.484 c -0.076,0 -0.132,0.062 -0.132,0.136 v 1.442 c 0,0.076 -0.061,0.134 -0.136,0.134 h -1.443 c -0.072,0 -0.136,0.059 -0.136,0.131 V 39.5 c 0,0.076 0.064,0.135 0.136,0.135 h 1.443 c 0.073,0 0.136,0.061 0.136,0.134 v 1.442 c 0,0.073 0.058,0.132 0.132,0.132 h 1.484 c 0.074,0 0.132,-0.062 0.132,-0.132 V 39.77 c 0,-0.075 0.062,-0.134 0.134,-0.134 h 1.445 c 0.073,0 0.133,-0.061 0.133,-0.135 v -1.483 z"
   inkscape:connector-curvature="0"
   style="fill:#ffffff" />

					</g>
      <g
         transform="translate(-246.66102,-38.440678)"
         id="g1233">
			<title
   id="title1235">text:SDA</title>

		</g>
      <g
         transform="translate(-246.66102,-38.440678)"
         id="g1237">
			<title
   id="title1239">text:SCL</title>

		</g>
      <g
         transform="translate(-246.66102,-38.440678)"
         id="g1241">
			<title
   id="title1243">text:A6</title>

		</g>
      <g
         transform="translate(-246.66102,-38.440678)"
         id="g1245">
			<title
   id="title1247">text:A11</title>

		</g>
      <g
         transform="translate(-246.66102,-38.440678)"
         id="g1249">
			<title
   id="title1251">text:A7</title>

		</g>
      <g
         transform="translate(-246.66102,-38.440678)"
         id="g1253">
			<title
   id="title1255">text:A8</title>

		</g>
      <g
         transform="translate(-246.66102,-38.440678)"
         id="g1257">
			<title
   id="title1259">text:A9</title>

		</g>
      <g
         transform="translate(-246.66102,-38.440678)"
         id="g1261">
			<title
   id="title1263">text:A10</title>

		</g>
      <g
         transform="translate(-246.66102,-38.440678)"
         id="g1265">
			<title
   id="title1267">text:(AIN0)</title>

		</g>
      <g
         transform="translate(-246.66102,-38.440678)"
         id="g1269">
			<title
   id="title1271">element:C1</title>

			<g
   id="g1273">
				<title
   id="title1275">package:C0603-ROUND</title>

			</g>

		</g>
      <g
         transform="translate(-246.66102,-38.440678)"
         id="g1277">
			<title
   id="title1279">element:C2</title>

			<g
   id="g1281">
				<title
   id="title1283">package:C0603-ROUND</title>

			</g>

		</g>
      <g
         transform="translate(-246.66102,-38.440678)"
         id="g1285">
			<title
   id="title1287">element:C3</title>

			<g
   id="g1289">
				<title
   id="title1291">package:C0603-ROUND</title>

			</g>

		</g>
      <g
         transform="translate(-246.66102,-38.440678)"
         id="g1293">
			<title
   id="title1295">element:C4</title>

			<g
   id="g1297">
				<title
   id="title1299">package:C0603-ROUND</title>

			</g>

		</g>
      <g
         transform="translate(-246.66102,-38.440678)"
         id="g1301">
			<title
   id="title1303">element:C5</title>

			<g
   id="g1305">
				<title
   id="title1307">package:C0603-ROUND</title>

			</g>

		</g>
      <g
         transform="translate(-246.66102,-38.440678)"
         id="g1309">
			<title
   id="title1311">element:C6</title>

			<g
   id="g1313">
				<title
   id="title1315">package:C0603-ROUND</title>

			</g>

		</g>
      <g
         transform="translate(-246.66102,-38.440678)"
         id="g1317">
			<title
   id="title1319">element:C7</title>

			<g
   id="g1321">
				<title
   id="title1323">package:C0603-ROUND</title>

			</g>

		</g>
      <g
         transform="translate(-246.66102,-38.440678)"
         id="g1325">
			<title
   id="title1327">element:C8</title>

			<g
   id="g1329">
				<title
   id="title1331">package:SMC_B</title>

			</g>

		</g>
      <g
         transform="translate(-246.66102,-38.440678)"
         id="g1333">
			<title
   id="title1335">element:C9</title>

			<g
   id="g1337">
				<title
   id="title1339">package:C0603-ROUND</title>

			</g>

		</g>
      <g
         transform="translate(-246.66102,-38.440678)"
         id="g1341">
			<title
   id="title1343">element:C10</title>

			<g
   id="g1345">
				<title
   id="title1347">package:SMC_B</title>

			</g>

		</g>
      <g
         transform="translate(-246.66102,-38.440678)"
         id="g1349">
			<title
   id="title1351">element:C11</title>

			<g
   id="g1353">
				<title
   id="title1355">package:C0603-ROUND</title>

			</g>

		</g>
      <g
         transform="translate(-246.66102,-38.440678)"
         id="g1357">
			<title
   id="title1359">element:C12</title>

			<g
   id="g1361">
				<title
   id="title1363">package:SMC_B</title>

			</g>

		</g>
      <g
         transform="translate(-246.66102,-38.440678)"
         id="g1365">
			<title
   id="title1367">element:C13</title>

			<g
   id="g1369">
				<title
   id="title1371">package:C0603-ROUND</title>

			</g>

		</g>
      <g
         transform="translate(-246.66102,-38.440678)"
         id="g1373">
			<title
   id="title1375">element:C14</title>

			<g
   id="g1377">
				<title
   id="title1379">package:C0603-ROUND</title>

			</g>

		</g>
      <g
         transform="translate(-246.66102,-38.440678)"
         id="g1381">
			<title
   id="title1383">element:C22</title>

			<g
   id="g1385">
				<title
   id="title1387">package:C0603-ROUND</title>

			</g>

		</g>
      <g
         transform="translate(-246.66102,-38.440678)"
         id="g1389">
			<title
   id="title1391">element:D1</title>

			<g
   id="g1393">
				<title
   id="title1395">package:SMB</title>

			</g>

		</g>
      <g
         transform="translate(-246.66102,-38.440678)"
         id="g1397">
			<title
   id="title1399">element:D2</title>

			<g
   id="g1401">
				<title
   id="title1403">package:MINIMELF</title>

			</g>

		</g>
      <g
         transform="translate(-246.66102,-38.440678)"
         id="g1405">
			<title
   id="title1407">element:F1</title>

			<g
   id="g1409">
				<title
   id="title1411">package:L1812</title>

			</g>

		</g>
      <g
         transform="translate(-246.66102,-38.440678)"
         id="g1413">
			<title
   id="title1415">element:FID1</title>

			<g
   id="g1417">
				<title
   id="title1419">package:FIDUCIA-MOUNT</title>

			</g>

		</g>
      <g
         transform="translate(-246.66102,-38.440678)"
         id="g1421">
			<title
   id="title1423">element:FID3</title>

			<g
   id="g1425">
				<title
   id="title1427">package:FIDUCIA-MOUNT</title>

			</g>

		</g>
      <g
         transform="translate(-246.66102,-38.440678)"
         id="g1429">
			<title
   id="title1431">element:IC2</title>

			<g
   id="g1433">
				<title
   id="title1435">package:MSOP08</title>

			</g>

		</g>
      <g
         transform="translate(-246.66102,-38.440678)"
         id="g1455">
			<title
   id="title1457">element:J4</title>

			<g
   id="g1459">
				<title
   id="title1461">package:1X06</title>

			</g>

		</g>
      <g
         transform="translate(-246.66102,-38.440678)"
         id="g1463">
			<title
   id="title1465">element:L</title>

			<g
   id="g1467">
				<title
   id="title1469">package:CHIPLED_0805</title>

			</g>

		</g>
      <g
         transform="translate(-246.66102,-38.440678)"
         id="g1471">
			<title
   id="title1473">element:L1</title>

			<g
   id="g1475">
				<title
   id="title1477">package:0805</title>

			</g>

		</g>
      <g
         transform="translate(-246.66102,-38.440678)"
         id="g1479">
			<title
   id="title1481">element:L2</title>

			<g
   id="g1483">
				<title
   id="title1485">package:0805</title>

			</g>

		</g>
      <g
         transform="translate(-246.66102,-38.440678)"
         id="g1487">
			<title
   id="title1489">element:ON</title>

			<g
   id="g1491">
				<title
   id="title1493">package:CHIPLED_0805</title>

			</g>

		</g>
      <g
         transform="translate(-246.66102,-38.440678)"
         id="g1495">
			<title
   id="title1497">element:ORIGIN</title>

			<g
   id="g1499">
				<title
   id="title1501">package:TP-SP</title>

			</g>

		</g>
      <g
         transform="translate(-246.66102,-38.440678)"
         id="g1503">
			<title
   id="title1505">element:R1</title>

			<g
   id="g1507">
				<title
   id="title1509">package:R0603-ROUND</title>

			</g>

		</g>
      <g
         transform="translate(-246.66102,-38.440678)"
         id="g1511">
			<title
   id="title1513">element:R2</title>

			<g
   id="g1515">
				<title
   id="title1517">package:R0402</title>

			</g>

		</g>
      <g
         transform="translate(-246.66102,-38.440678)"
         id="g1519">
			<title
   id="title1521">element:R3</title>

			<g
   id="g1523">
				<title
   id="title1525">package:R0402</title>

			</g>

		</g>
      <g
         transform="translate(-246.66102,-38.440678)"
         id="g1527">
			<title
   id="title1529">element:RESET</title>

			<g
   id="g1531">
				<title
   id="title1533">package:TS42</title>

			</g>

		</g>
      <g
         transform="translate(-246.66102,-38.440678)"
         id="g1535">
			<title
   id="title1537">element:RN1</title>

			<g
   id="g1539">
				<title
   id="title1541">package:CAY16</title>

			</g>

		</g>
      <g
         transform="translate(-246.66102,-38.440678)"
         id="g1543">
			<title
   id="title1545">element:RN2</title>

			<g
   id="g1547">
				<title
   id="title1549">package:CAY16</title>

			</g>

		</g>
      <g
         transform="translate(-246.66102,-38.440678)"
         id="g1551">
			<title
   id="title1553">element:RN3</title>

			<g
   id="g1555">
				<title
   id="title1557">package:CAY16</title>

			</g>

		</g>
      <g
         transform="translate(-246.66102,-38.440678)"
         id="g1559">
			<title
   id="title1561">element:RX</title>

			<g
   id="g1563">
				<title
   id="title1565">package:CHIPLED_0805</title>

			</g>

		</g>
      <g
         transform="translate(-246.66102,-38.440678)"
         id="g1567">
			<title
   id="title1569">element:T1</title>

			<g
   id="g1571">
				<title
   id="title1573">package:SOT-23</title>

			</g>

		</g>
      <g
         transform="translate(-246.66102,-38.440678)"
         id="g1575">
			<title
   id="title1577">element:TX</title>

			<g
   id="g1579">
				<title
   id="title1581">package:CHIPLED_0805</title>

			</g>

		</g>
      <g
         transform="translate(-246.66102,-38.440678)"
         id="g1583">
			<title
   id="title1585">element:U1</title>

			<g
   id="g1587">
				<title
   id="title1589">package:QFN44ML7X7</title>

			</g>

		</g>
      <g
         transform="translate(-246.66102,-38.440678)"
         id="g1591">
			<title
   id="title1593">element:U2</title>

			<g
   id="g1595">
				<title
   id="title1597">package:TQFP44-PAD</title>

			</g>

		</g>
      <g
         transform="translate(-246.66102,-38.440678)"
         id="g1599">
			<title
   id="title1601">element:U3</title>

			<g
   id="g1603">
				<title
   id="title1605">package:SOT23-DBV</title>

			</g>

		</g>
      <g
         transform="translate(-246.66102,-38.440678)"
         id="g1607">
			<title
   id="title1609">element:Y1</title>

			<g
   id="g1611">
				<title
   id="title1613">package:CRYSTAL-3.2-2.5</title>

			</g>

		</g>
      <g
         transform="translate(-246.66102,-38.440678)"
         id="g1615">
			<title
   id="title1617">element:Z1</title>

			<g
   id="g1619">
				<title
   id="title1621">package:CT/CN0603</title>

			</g>

		</g>
      <g
         transform="translate(-246.66102,-38.440678)"
         id="g1623">
			<title
   id="title1625">element:Z2</title>

			<g
   id="g1627">
				<title
   id="title1629">package:CT/CN0603</title>

			</g>

		</g>
    </g>
  </g>
</svg>
